<svg width="205" height="35" viewBox="0 0 410 35" fill="none" xmlns="http://www.w3.org/2000/svg">
<path d="M22.8251 7.81818V34H18.0439L6.65323 17.5213H6.46147V34H0.925959V7.81818H5.78391L17.0851 24.2841H17.3152V7.81818H22.8251ZM51.4583 20.9091C51.4583 23.7642 50.9171 26.1932 49.8347 28.196C48.7608 30.1989 47.2949 31.7287 45.437 32.7855C43.5875 33.8338 41.508 34.358 39.1983 34.358C36.8716 34.358 34.7836 33.8295 32.9341 32.7727C31.0847 31.7159 29.623 30.1861 28.5492 28.1832C27.4753 26.1804 26.9384 23.7557 26.9384 20.9091C26.9384 18.054 27.4753 15.625 28.5492 13.6222C29.623 11.6193 31.0847 10.0937 32.9341 9.04545C34.7836 7.98864 36.8716 7.46023 39.1983 7.46023C41.508 7.46023 43.5875 7.98864 45.437 9.04545C47.2949 10.0937 48.7608 11.6193 49.8347 13.6222C50.9171 15.625 51.4583 18.054 51.4583 20.9091ZM45.8461 20.9091C45.8461 19.0597 45.5691 17.5 45.0151 16.2301C44.4696 14.9602 43.6983 13.9972 42.7012 13.3409C41.704 12.6847 40.5364 12.3565 39.1983 12.3565C37.8603 12.3565 36.6926 12.6847 35.6955 13.3409C34.6983 13.9972 33.9228 14.9602 33.3688 16.2301C32.8233 17.5 32.5506 19.0597 32.5506 20.9091C32.5506 22.7585 32.8233 24.3182 33.3688 25.5881C33.9228 26.858 34.6983 27.821 35.6955 28.4773C36.6926 29.1335 37.8603 29.4616 39.1983 29.4616C40.5364 29.4616 41.704 29.1335 42.7012 28.4773C43.6983 27.821 44.4696 26.858 45.0151 25.5881C45.5691 24.3182 45.8461 22.7585 45.8461 20.9091ZM55.5588 7.81818H62.3855L69.5957 25.4091H69.9025L77.1127 7.81818H83.9395V34H78.5701V16.9588H78.3528L71.5772 33.8722H67.921L61.1454 16.8949H60.9281V34H55.5588V7.81818ZM88.5002 34V7.81818H106.142V12.3821H94.0357V18.6207H105.235V23.1847H94.0357V29.4361H106.193V34H88.5002ZM128.156 34H118.875V7.81818H128.233C130.867 7.81818 133.134 8.34233 135.034 9.39062C136.935 10.4304 138.396 11.9261 139.419 13.8778C140.45 15.8295 140.966 18.1648 140.966 20.8835C140.966 23.6108 140.45 25.9545 139.419 27.9148C138.396 29.875 136.926 31.3793 135.009 32.4276C133.1 33.4759 130.816 34 128.156 34ZM124.411 29.2571H127.926C129.563 29.2571 130.939 28.9673 132.056 28.3878C133.181 27.7997 134.024 26.892 134.587 25.6648C135.158 24.429 135.443 22.8352 135.443 20.8835C135.443 18.9489 135.158 17.3679 134.587 16.1406C134.024 14.9134 133.185 14.0099 132.068 13.4304C130.952 12.8509 129.575 12.5611 127.939 12.5611H124.411V29.2571ZM169.126 20.9091C169.126 23.7642 168.585 26.1932 167.503 28.196C166.429 30.1989 164.963 31.7287 163.105 32.7855C161.256 33.8338 159.176 34.358 156.866 34.358C154.54 34.358 152.452 33.8295 150.602 32.7727C148.753 31.7159 147.291 30.1861 146.217 28.1832C145.143 26.1804 144.606 23.7557 144.606 20.9091C144.606 18.054 145.143 15.625 146.217 13.6222C147.291 11.6193 148.753 10.0937 150.602 9.04545C152.452 7.98864 154.54 7.46023 156.866 7.46023C159.176 7.46023 161.256 7.98864 163.105 9.04545C164.963 10.0937 166.429 11.6193 167.503 13.6222C168.585 15.625 169.126 18.054 169.126 20.9091ZM163.514 20.9091C163.514 19.0597 163.237 17.5 162.683 16.2301C162.138 14.9602 161.366 13.9972 160.369 13.3409C159.372 12.6847 158.204 12.3565 156.866 12.3565C155.528 12.3565 154.361 12.6847 153.363 13.3409C152.366 13.9972 151.591 14.9602 151.037 16.2301C150.491 17.5 150.219 19.0597 150.219 20.9091C150.219 22.7585 150.491 24.3182 151.037 25.5881C151.591 26.858 152.366 27.821 153.363 28.4773C154.361 29.1335 155.528 29.4616 156.866 29.4616C158.204 29.4616 159.372 29.1335 160.369 28.4773C161.366 27.821 162.138 26.858 162.683 25.5881C163.237 24.3182 163.514 22.7585 163.514 20.9091ZM195.762 15.348C195.66 14.3168 195.221 13.5156 194.445 12.9446C193.67 12.3736 192.617 12.0881 191.287 12.0881C190.384 12.0881 189.621 12.2159 188.999 12.4716C188.377 12.7188 187.9 13.0639 187.567 13.5071C187.243 13.9503 187.081 14.4531 187.081 15.0156C187.064 15.4844 187.162 15.8935 187.376 16.2429C187.597 16.5923 187.9 16.8949 188.283 17.1506C188.667 17.3977 189.11 17.6151 189.613 17.8026C190.116 17.9815 190.653 18.1349 191.224 18.2628L193.576 18.8253C194.718 19.081 195.766 19.4219 196.721 19.848C197.675 20.2741 198.502 20.7983 199.201 21.4205C199.9 22.0426 200.441 22.7756 200.824 23.6193C201.216 24.4631 201.417 25.4304 201.425 26.5213C201.417 28.1236 201.008 29.5128 200.198 30.6889C199.397 31.8565 198.238 32.7642 196.721 33.4119C195.212 34.0511 193.393 34.3707 191.262 34.3707C189.148 34.3707 187.307 34.0469 185.739 33.3991C184.18 32.7514 182.961 31.7926 182.083 30.5227C181.214 29.2443 180.758 27.6634 180.715 25.7798H186.072C186.131 26.6577 186.383 27.3906 186.826 27.9787C187.278 28.5582 187.878 28.9972 188.628 29.2955C189.387 29.5852 190.243 29.7301 191.198 29.7301C192.135 29.7301 192.949 29.5937 193.64 29.321C194.339 29.0483 194.88 28.669 195.263 28.1832C195.647 27.6974 195.839 27.1392 195.839 26.5085C195.839 25.9205 195.664 25.4261 195.314 25.0256C194.974 24.625 194.471 24.2841 193.806 24.0028C193.15 23.7216 192.344 23.4659 191.39 23.2358L188.539 22.5199C186.331 21.983 184.589 21.1435 183.31 20.0014C182.032 18.8594 181.397 17.321 181.405 15.3864C181.397 13.8011 181.819 12.4162 182.671 11.2315C183.532 10.0469 184.712 9.12216 186.212 8.45739C187.712 7.79261 189.417 7.46023 191.326 7.46023C193.269 7.46023 194.965 7.79261 196.414 8.45739C197.871 9.12216 199.005 10.0469 199.814 11.2315C200.624 12.4162 201.042 13.7884 201.067 15.348H195.762ZM205.149 34V7.81818H222.791V12.3821H210.684V18.6207H221.883V23.1847H210.684V29.4361H222.842V34H205.149ZM243.363 7.81818H248.899V24.821C248.899 26.7301 248.443 28.4006 247.531 29.8324C246.628 31.2642 245.362 32.3807 243.734 33.1818C242.106 33.9744 240.21 34.3707 238.045 34.3707C235.872 34.3707 233.971 33.9744 232.344 33.1818C230.716 32.3807 229.45 31.2642 228.547 29.8324C227.643 28.4006 227.192 26.7301 227.192 24.821V7.81818H232.727V24.348C232.727 25.3452 232.944 26.2315 233.379 27.0071C233.822 27.7827 234.444 28.392 235.246 28.8352C236.047 29.2784 236.98 29.5 238.045 29.5C239.119 29.5 240.052 29.2784 240.845 28.8352C241.646 28.392 242.264 27.7827 242.699 27.0071C243.142 26.2315 243.363 25.3452 243.363 24.348V7.81818ZM284.886 16.9844H279.287C279.184 16.2599 278.976 15.6165 278.66 15.054C278.345 14.483 277.94 13.9972 277.446 13.5966C276.952 13.196 276.381 12.8892 275.733 12.6761C275.094 12.4631 274.399 12.3565 273.649 12.3565C272.294 12.3565 271.113 12.6932 270.108 13.3665C269.102 14.0312 268.322 15.0028 267.768 16.2812C267.214 17.5511 266.937 19.0937 266.937 20.9091C266.937 22.7756 267.214 24.3437 267.768 25.6136C268.331 26.8835 269.115 27.8423 270.121 28.4901C271.126 29.1378 272.29 29.4616 273.611 29.4616C274.352 29.4616 275.038 29.3636 275.669 29.1676C276.308 28.9716 276.875 28.6861 277.369 28.3111C277.863 27.9276 278.273 27.4631 278.596 26.9176C278.929 26.3722 279.159 25.75 279.287 25.0511L284.886 25.0767C284.741 26.2784 284.379 27.4375 283.8 28.554C283.229 29.6619 282.457 30.6548 281.486 31.5327C280.523 32.402 279.372 33.0923 278.034 33.6037C276.704 34.1065 275.2 34.358 273.521 34.358C271.186 34.358 269.098 33.8295 267.257 32.7727C265.425 31.7159 263.976 30.1861 262.91 28.1832C261.854 26.1804 261.325 23.7557 261.325 20.9091C261.325 18.054 261.862 15.625 262.936 13.6222C264.01 11.6193 265.467 10.0937 267.308 9.04545C269.149 7.98864 271.22 7.46023 273.521 7.46023C275.038 7.46023 276.444 7.67329 277.74 8.09943C279.044 8.52557 280.199 9.14773 281.204 9.96591C282.21 10.7756 283.028 11.7685 283.659 12.9446C284.298 14.1207 284.707 15.4673 284.886 16.9844ZM292.876 34H286.944L295.983 7.81818H303.116L312.142 34H306.21L299.652 13.8011H299.447L292.876 34ZM292.506 23.7088H306.517V28.0298H292.506V23.7088ZM315.293 34V7.81818H325.623C327.6 7.81818 329.287 8.17187 330.685 8.87926C332.091 9.57812 333.161 10.571 333.894 11.858C334.635 13.1364 335.006 14.6406 335.006 16.3707C335.006 18.1094 334.631 19.6051 333.881 20.858C333.131 22.1023 332.045 23.0568 330.621 23.7216C329.206 24.3864 327.493 24.7188 325.482 24.7188H318.566V20.2699H324.587C325.644 20.2699 326.522 20.125 327.221 19.8352C327.92 19.5455 328.439 19.1108 328.78 18.5312C329.13 17.9517 329.305 17.2315 329.305 16.3707C329.305 15.5014 329.13 14.7685 328.78 14.1719C328.439 13.5753 327.915 13.1236 327.208 12.8168C326.509 12.5014 325.627 12.3438 324.562 12.3438H320.829V34H315.293ZM329.432 22.0852L335.939 34H329.829L323.462 22.0852H329.432ZM337.921 12.3821V7.81818H359.424V12.3821H351.408V34H345.937V12.3821H337.921ZM364.279 34H358.347L367.385 7.81818H374.519L383.544 34H377.612L371.054 13.8011H370.85L364.279 34ZM363.908 23.7088H377.919V28.0298H363.908V23.7088ZM367.283 5.2358L364.266 5.19744C364.266 3.5696 364.666 2.32102 365.468 1.4517C366.269 0.582385 367.253 0.143465 368.421 0.134942C369.017 0.134942 369.529 0.232953 369.955 0.428976C370.381 0.616476 370.769 0.838068 371.118 1.09375C371.468 1.34943 371.8 1.57528 372.115 1.77131C372.431 1.95881 372.771 2.05256 373.138 2.05256C373.632 2.04403 374.007 1.86079 374.263 1.50284C374.527 1.13636 374.659 0.659091 374.659 0.0710216L377.638 0.160511C377.621 1.77131 377.212 3.01562 376.411 3.89347C375.61 4.76278 374.629 5.2017 373.47 5.21023C372.84 5.21875 372.307 5.125 371.872 4.92898C371.446 4.73295 371.071 4.51136 370.747 4.2642C370.423 4.00852 370.108 3.78267 369.801 3.58665C369.494 3.39062 369.149 3.29261 368.766 3.29261C368.323 3.29261 367.965 3.46733 367.692 3.81676C367.419 4.16619 367.283 4.6392 367.283 5.2358ZM409.525 20.9091C409.525 23.7642 408.983 26.1932 407.901 28.196C406.827 30.1989 405.361 31.7287 403.503 32.7855C401.654 33.8338 399.574 34.358 397.265 34.358C394.938 34.358 392.85 33.8295 391.001 32.7727C389.151 31.7159 387.689 30.1861 386.616 28.1832C385.542 26.1804 385.005 23.7557 385.005 20.9091C385.005 18.054 385.542 15.625 386.616 13.6222C387.689 11.6193 389.151 10.0937 391.001 9.04545C392.85 7.98864 394.938 7.46023 397.265 7.46023C399.574 7.46023 401.654 7.98864 403.503 9.04545C405.361 10.0937 406.827 11.6193 407.901 13.6222C408.983 15.625 409.525 18.054 409.525 20.9091ZM403.912 20.9091C403.912 19.0597 403.635 17.5 403.081 16.2301C402.536 14.9602 401.765 13.9972 400.768 13.3409C399.77 12.6847 398.603 12.3565 397.265 12.3565C395.927 12.3565 394.759 12.6847 393.762 13.3409C392.765 13.9972 391.989 14.9602 391.435 16.2301C390.89 17.5 390.617 19.0597 390.617 20.9091C390.617 22.7585 390.89 24.3182 391.435 25.5881C391.989 26.858 392.765 27.821 393.762 28.4773C394.759 29.1335 395.927 29.4616 397.265 29.4616C398.603 29.4616 399.77 29.1335 400.768 28.4773C401.765 27.821 402.536 26.858 403.081 25.5881C403.635 24.3182 403.912 22.7585 403.912 20.9091Z" fill="white"/>
</svg>
